<?xml version="1.0" encoding="UTF-8"?>
<svg id="uuid-d01ac07c-ee34-4ae2-b3b0-7e4b54d72a1d" data-name="Layer 2" xmlns="http://www.w3.org/2000/svg" viewBox="0 0 452.56 215.82">
  <path d="M438.41,119.68c-17.54,4-36.15,8.64-54.12,4.76-5.24-1.31-10.17-4.36-12.94-9.05-1.19-1.87-1.74-4.17-2.77-5.46-1.25-1.92-4.08-1.45-6.18-.72-3.69,1.45-8.07,1.86-11.08,4.5-2.14,2.53-.06,6.28-.16,9.38.21,4.61-1.65,9.16-4.85,12.45-7.42,7.46-18.8,9.76-29,10.54-9.82.89-20.75-3.76-11.66-14.07,7.05-7.59,17.47-10.63,26.68-14.93,5.66-3-3.26-5.71-5.66-7.09-3.9-1.81-7.5-4.86-11.31-1.74-9.96,7.05-19.85,15.17-31.19,20.12-10.56,5.24-22.21-.17-21.73-12.71-.04-2.3-.15-3.71-1.62-3.25-1.85.75-3.66,2.55-5.33,3.77-8.69,6.52-19.03,14.54-30.29,14.23-14.77-1.64-11.26-19.08-7.17-28.83,1.54-4.23-2-2.94-4.27-2.13-5.36,1.92-10.8,3.6-16.21,5.01-2.13.56-4.1,1.04-6.24,1.55-3.37.94-7.76,1.26-10.46,3.66-1.29,1.19-1.98,2.94-2.64,4.6-1.98,5.05-4.15,9.98-6.42,14.88-6.75,14.6-13.34,29.39-22.26,42.83-9.06,14.22-19.81,24.6-35.78,35.35-5.02,3.43-10.31,6.02-15.98,7.9-3.61,1.33-8.33.47-4.19-3.34,2.95-2.36,6.62-3.9,9.7-6.11,5.86-3.94,10.96-9.14,15.78-14.37,16.2-17.13,25.64-39.81,33.01-61.93,1.34-3.99,3.61-10.55,4.63-13.72.26-.97.71-2.4-.65-2.55-2.96-.17-7.78.97-11.04,1.27-7.54.84-24.23,2.58-35.11,3.75-3.98.19-12.74,2.17-13.13-.22.29-.9,2.4-2.04,3.6-2.52,3.68-1.55,7.2-3.17,10.79-4.61,17.64-6.52,35.09-13.72,51.98-22.02,2.02-1.1,3.19-2.52,3.98-4.58,1.59-4.15,4.85-13.1,6.76-18.24,6.6-18.62,15.57-36.65,29.34-50.78C211.87,6.29,223.79-.97,236.67.1c7.23.47,15.55,4.35,17.15,11.98,2.11,11.59-7.27,21.87-14.27,30.09-13.34,15.06-30.06,27.3-47.92,36.56-1.72,1.12-2.38,2.7-2.99,4.63-1.33,4.14-3.9,12.06-5.24,16.3-.53,1.71-1,3.79,1.73,3.34,11.53-2.16,22.84-5.74,33.48-10.45,3.17-1.38,6.01-3.01,7.98-5.92,1.85-2.62,4-5.89,7.02-7.59,4.19-2.89,11.6-.88,11.33,4.45-.63,4.94-6.39,7.17-8.92,11.08-2.68,3.73-3.73,8.39-5.11,12.77-2.48,6.8-2.73,17.27,7.55,14.07,4.3-1.54,8.06-4.39,11.81-6.9,4.25-2.97,9.07-5.99,11.92-10.29,3.49-5.09,4.25-11.91,8.18-16.8,3.6-5.41,14.8-9.04,16.07-.09.27,3.36-1.37,6.98-2.81,10.15-2.2,4.73-4.43,8.97-6.38,13.94-5.26,12.82,5.45,9.91,12.59,5.97,5.86-3.14,11.71-6.9,17.48-10.44,3.12-1.85,6.76-3.96,6.45-8.1-2.26-13.33,9.9-24.73,22.59-25.59,4.36-.37,9.19.37,12.6,3.29,4.68,3.95,1.67,9.66-2.37,12.63-3.01,2.48-6.22,4.12-9.82,6.13-1.17.75-3.24,1.65-3.44,3.06.07,1.18,1.67,1.8,2.61,2.45,2.41,1.39,4.9,3.08,6.95,5.12,3.23,3.64,6.27,4.27,10.71,2.15,4.54-2.16,9.99-2.66,14.05-5.76,2.44-2.15,3.14-5.55,4.85-8.23,7.03-10.77,20.07-23.17,33.47-24.1,4.82-.25,10.5,1.57,12.75,6.03,5.29,10.82-18.41,22.04-26.37,24.99-5.24,1.47-8.77,6.63-5.4,11.58,2.52,3.46,7.31,4.37,11.34,4.91,17.56,2.29,34.83-4.55,51.86-7.02,1.91.16,2.94,1.24,2.09,2.77-.94,1.51-2.71,2.41-4.33,3.12-3.05,1.28-6.2,2.36-9.33,3.25l-.19.05ZM223.41,50.37c4.86-5,9.78-10.17,14.05-15.89,3.66-5.15,11.34-16.66,6.78-22.49-5.84-5.59-15.55-1.66-20.95,2.91-16.11,14.23-24.48,35.51-30.39,55.77-.87,3.74,1.79,2.15,3.66,1.04,9.88-5.78,18.8-13.07,26.72-21.2l.14-.14ZM403.08,91.8c3.29-2.34,10.62-6.22,10.23-10.85-2.89-6.42-17.65,5.05-20.59,8.48-2.7,2.67-6.92,8.52-.98,7.83,4.03-.7,7.78-3.35,11.18-5.35l.17-.11ZM339.98,89.81c14.41-11.77-4.63-12.84-11.51-.95-2.71,5.17-2.08,10.26,4.65,5.46,2.27-1.39,4.66-2.85,6.7-4.38l.16-.12ZM112.44,114.73c.57.36,2.08.08,2.92.03,4.56-.51,10.21-1.65,14.45-2.34,6.73-1.02,14.08-2.05,20.99-3.07,2.5-.36,4.89-.71,7.31-1.06,2.46-.36,3-.38,3.78-2.7.48-1.41.93-2.88,1.4-4.36.58-1.83,1.31-4.14,1.82-5.81.43-1.42.64-2.26.38-2.49-.29-.27-1.23.18-2.76.86-7.34,3.26-16.68,7.55-24.29,10.83-6.74,2.88-13.68,5.36-20.67,7.73-1.4.58-4.67,1.39-5.34,2.36v.03ZM333.48,131.95c2.33-1.51,4.38-3.64,5.38-6.28.89-2.24,1.01-5.47-.3-6.61-1.11-1.05-2.87-.39-4.2.17-5.25,2.36-10.7,4.68-15.88,7.25-2.99,1.62-9.84,4.93-8.23,9.09,3.13,4.34,19.24-.77,23.07-3.5l.17-.11Z" fill="#f47d20"/>
  <g>
    <path d="M15.45,79.91c-4.61,0-8.34-1.67-11.18-5-2.85-3.34-4.27-7.97-4.27-13.91,0-3.92.76-7.31,2.28-10.15,1.52-2.84,3.5-5.03,5.92-6.55,2.43-1.52,5.02-2.28,7.76-2.28,2.06,0,3.89.37,5.48,1.1,1.59.74,3.08,1.79,4.45,3.16h.22l-.44-6.11v-13.1h8.54v51.95h-6.99l-.66-4.19h-.22c-1.37,1.37-3.03,2.56-4.97,3.57-1.94,1-3.91,1.51-5.92,1.51ZM17.51,72.92c2.99,0,5.71-1.45,8.17-4.34v-16.26c-1.28-1.23-2.55-2.08-3.83-2.58-1.28-.49-2.58-.74-3.9-.74-2.5,0-4.66,1.04-6.48,3.13-1.82,2.09-2.72,5.02-2.72,8.79s.77,6.84,2.32,8.9c1.55,2.06,3.69,3.09,6.44,3.09Z" fill="#005472"/>
    <path d="M54.74,79.03v-29.43h-15.67v-6.7h24.13v36.13h-8.46ZM58.35,36.28c-1.72,0-3.15-.52-4.3-1.55-1.15-1.03-1.73-2.4-1.73-4.12s.58-3.1,1.73-4.16c1.15-1.05,2.59-1.58,4.3-1.58s3.15.53,4.3,1.58c1.15,1.06,1.73,2.44,1.73,4.16s-.58,3.09-1.73,4.12c-1.15,1.03-2.59,1.55-4.3,1.55Z" fill="#005472"/>
    <path d="M86.46,79.03v-29.43h-10.01v-6.33l10.01-.37v-1.99c0-2.84.54-5.37,1.62-7.58,1.08-2.21,2.75-3.95,5-5.22,2.26-1.27,5.15-1.91,8.68-1.91,1.96,0,3.84.17,5.63.52,1.79.34,3.5.83,5.11,1.47l-1.77,6.25c-1.32-.54-2.61-.93-3.86-1.18-1.25-.24-2.61-.37-4.08-.37-2.75,0-4.76.67-6.03,2.02-1.28,1.35-1.91,3.3-1.91,5.85v2.13h13.76v6.7h-13.76v29.43h-8.39Z" fill="#005472"/>
    <path d="M123.25,79.03v-29.43h-10.01v-6.33l10.01-.37v-1.99c0-2.84.54-5.37,1.62-7.58,1.08-2.21,2.75-3.95,5-5.22,2.26-1.27,5.15-1.91,8.68-1.91,1.96,0,3.84.17,5.63.52,1.79.34,3.5.83,5.11,1.47l-1.77,6.25c-1.32-.54-2.61-.93-3.86-1.18-1.25-.24-2.61-.37-4.08-.37-2.75,0-4.76.67-6.03,2.02-1.28,1.35-1.91,3.3-1.91,5.85v2.13h13.76v6.7h-13.76v29.43h-8.39Z" fill="#005472"/>
  </g>
</svg>